<?xml version="1.0" standalone="no"?>
<!DOCTYPE svg PUBLIC "-//W3C//DTD SVG 1.1//EN" "http://www.w3.org/Graphics/SVG/1.1/DTD/svg11.dtd">
<svg xmlns="http://www.w3.org/2000/svg">
<metadata>Copyright (C) 2015 by original authors @ fontello.com</metadata>
<defs>
<font id="action-icons" horiz-adv-x="1000" >
<font-face font-family="action-icons" font-weight="400" font-stretch="normal" units-per-em="1000" ascent="850" descent="-150" />
<missing-glyph horiz-adv-x="1000" />
<glyph glyph-name="add-segment" unicode="&#xe800;" d="m823 76c-12 0-21-4-29-12-78-78-181-124-292-124s-214 46-292 124c-8 8-17 12-29 12s-20-4-29-12c-8-8-12-16-12-29s4-20 12-29c95-94 218-148 354-148 132 0 259 54 354 148 8 9 12 17 12 29s-4 21-12 29c-16 8-25 12-37 12z m-683 490c58 95 144 165 251 194 12 4 21 8 25 20 4 8 8 21 4 33-4 16-21 29-37 29-4 0-9 0-13 0-127-37-234-119-304-235-66-115-82-251-50-378 5-17 21-33 42-33 4 0 8 0 12 0 12 4 21 8 25 20 4 9 8 21 4 33-29 107-17 222 41 317z m798 33l-4 8c-70 115-177 198-304 235-4 0-9 0-13 0-20 0-37-13-41-33-4-21 8-45 29-49 107-29 197-99 251-194l8-16 0 0c50-91 58-198 33-297-4-12 0-20 4-33 4-8 17-16 25-20 4 0 8 0 12 0 21 0 37 12 41 33 38 119 21 251-41 366z m-720-222c0-21 17-41 41-41h202v-202c0-21 16-41 41-41 12 0 21 4 29 12 8 8 12 17 12 29v202h202c12 0 20 4 29 12s12 16 12 29c0 20-16 41-41 41h-202v202c0 20-16 41-41 41-21 0-41-17-41-41v-202h-202c-24 0-41-17-41-41z" horiz-adv-x="1000" />
<glyph glyph-name="mail" unicode="&#xe801;" d="m255-27c-141 0-255 113-255 254v246c0 50 14 86 36 127 14 18 28 36 37 50 45 50 109 77 182 77h495c73 0 136-27 177-77 14-14 28-32 37-50 22-36 36-77 36-127v-246c0-141-114-254-255-254h-490z m-110 113c32-22 73-36 110-36h495c36 0 77 14 105 36l-200 200 0 0c-32-40-91-63-146-63-50 0-109 23-145 63h-19l-200-200z m-59 459c-9-22-13-45-13-72v-246c0-31 9-59 22-86l200 200-209 204z m819-399c9 22 22 50 22 81v246c0 27-4 45-13 77l-205-205 196-199z m-505 186c27-27 59-41 95-41s73 14 96 41l273 273c-28 31-73 50-123 50h-486c-50 0-96-19-123-50l268-273z" horiz-adv-x="1000" />
<glyph glyph-name="mobile-screen" unicode="&#xe802;" d="m667 850h-334c-90 0-166-77-166-167v-666c0-90 76-167 166-167h334c90 0 166 77 166 167v666c0 90-76 167-166 167z m90-806c0-54-45-99-99-99h-316c-54 0-99 45-99 99v612c0 54 45 99 99 99h311c54 0 99-45 99-99v-612h5z m-257 85c-32 0-54-22-54-54s22-54 54-54 54 23 54 54c0 32-22 54-54 54z m140 554h-280c-18 0-27-9-27-27v-54c0-18 9-27 27-27h280c18 0 27 9 27 27v54c0 18-14 27-27 27z" horiz-adv-x="1000" />
<glyph glyph-name="remove-segment" unicode="&#xe803;" d="m824 75c-12 0-21-4-29-12-78-78-184-123-295-123s-217 45-295 123c-8 8-17 12-29 12s-20-4-29-12-12-16-12-29 4-20 12-28c95-95 222-148 353-148 135 0 258 53 352 148 9 8 13 16 13 28s-4 21-13 29c-8 8-20 12-28 12z m-685 492c58 95 144 164 254 193 13 4 21 8 25 20 4 9 8 21 4 33-4 17-24 29-41 29-4 0-8 0-12 0-127-37-234-119-303-234-66-115-82-250-50-377 5-16 21-33 41-33 5 0 9 0 13 0 12 5 20 9 24 21 4 8 9 20 4 33-28 106-16 217 41 315z m796 33l-5 8c-65 115-176 197-303 234-4 0-8 0-12 0-21 0-37-12-41-33s8-45 29-49c106-29 196-99 254-193l8-16 0 0c49-90 57-197 33-299-4-13 0-21 4-33 4-8 16-17 24-21 4 0 9 0 13 0 20 0 37 13 41 33 36 123 20 254-45 369z m-226-49c0 8-4 20-12 29-17 16-41 16-58 0l-143-144-139 144c-17 16-41 16-58 0s-16-41 0-58l144-143-144-144c-16-16-16-41 0-57s41-17 58 0l143 143 144-143c16-17 41-17 57 0 8 8 12 16 12 29s-8 20-16 28l-144 144 144 143c8 8 12 17 12 29z" horiz-adv-x="1000" />
<glyph glyph-name="slack" unicode="&#xe804;" d="m950 280l-185-36-59 298 186 37c22 4 36 27 31 49-4 23-27 36-50 32l-185-36-36 185c-5 23-27 36-50 32-23-5-36-27-32-50l37-185-304-50-36 185c-4 23-27 41-50 37s-40-28-36-55l36-185-181-36c-22-5-41-28-36-50 5-23 23-36 41-36 4 0 4 0 9 0l185 36 59-299-185-36c-23-4-37-27-32-50 4-22 23-36 41-36 4 0 4 0 9 0l185 36 36-185c5-23 23-37 41-37 5 0 5 0 9 0 23 9 41 32 36 55l-36 185 299 59 36-185c5-23 23-37 41-37 4 0 4 0 9 0 22 5 36 27 31 50l-36 186 186 36c22 4 36 27 31 50 1 27-22 45-45 36z m-570-109l-59 299 299 59 59-299-299-59z" horiz-adv-x="1000" />
<glyph glyph-name="remove-tag" unicode="&#xe805;" d="m210 580c0-60 50-105 105-105 60 0 105 50 105 105 0 60-50 105-105 105-55 5-105-45-105-105z m120 0c0-5-5-10-10-10s-10 5-10 10 5 10 10 10c5 5 10 0 10-10z m470-235l140 140c15 15 15 40 0 55s-40 15-55 0l-140-140-140 140c-15 15-40 15-55 0-20-15-20-40-5-55l140-140-140-140c-15-15-15-40 0-55 10-10 20-10 30-10s20 5 30 10l140 140 140-140c10-10 20-10 30-10s20 5 30 10c15 15 15 40 0 55l-145 140z m-30-330c-10 10-20 15-35 15-10 0-25-5-35-15l-65-65-490 490v245c0 40 30 70 70 70h245l105-105c10-10 20-15 35-15s25 5 35 15l0 0c20 20 20 50 0 65l-110 110c-15 15-40 25-60 25h-250c-90 0-165-75-165-165v-250c0-25 10-45 25-60l500-500c15-15 40-25 60-25l0 0c25 0 45 10 60 25l70 70c10 10 15 20 15 35 5 15 0 25-10 35l0 0z" horiz-adv-x="1000" />
<glyph glyph-name="sms" unicode="&#xe806;" d="m0 850v-758h636l288-237h5 5c0 0 5 0 10 0s11-5 16-5h15 5c15 10 25 25 25 40v960h-1005z m914-859l-217 182v5h-10l0 0h-5-596v586h828l0-773 0 0z m-96 617h-636v-86h636v86h0z m0-182h-636v-86h636v86h0z" horiz-adv-x="1000" />
<glyph glyph-name="tags" unicode="&#xe807;" d="m974 324l-500 500c-16 15-37 26-58 26h-253c-89 0-163-74-163-163v-247c0-27 11-48 26-64l500-500c16-15 37-26 63-26l0 0c22 0 48 11 64 26l326 327c16 16 26 37 26 63-5 21-15 42-31 58z m-390-374l-489 489v248c0 37 31 68 68 68h242l490-489-311-316z m-316 737c-57 0-105-47-105-105s48-106 105-106 106 48 106 106-48 105-106 105z m0-116c-5 0-10 5-10 11s5 10 10 10 11-5 11-10c0-6-5-11-11-11z" horiz-adv-x="1000" />
<glyph glyph-name="update-field" unicode="&#xe808;" d="m281 375c88 0 161 47 203 116 9 18 0 41-23 46h-14c-9 4-23 0-28-9-27-47-78-79-138-79-87 0-161 74-161 161s74 162 161 162c37 0 74-14 102-37l-47-37c-13-9-9-32 10-32l143-23c13 0 27 9 27 23v143c0 18-18 23-32 13l-42-32c-46 37-101 60-161 60-129 0-235-106-235-235 0-134 106-240 235-240z m327 268v-83h346v83h-346z m272-415h-760c-19 0-37-9-51-23s-23-32-23-51v-226c0-18 9-37 23-50l0 0c14-14 32-23 51-23h332 92 332c18 0 36 9 50 23l0 0c14 13 23 32 23 50v226c0 19-9 37-23 51-9 14-27 23-46 23z m-751-295v212h742v-212h-742z" horiz-adv-x="1000" />
<glyph glyph-name="buy" unicode="&#xe809;" d="m833 850h-666c-95 0-167-72-167-167v-666c0-95 72-167 167-167h666c95 0 167 72 167 167v278 111 222 55c0 95-78 167-167 167z m56-833c0-28-22-56-56-56h-666c-34 0-56 22-56 56v666c0 28 22 56 56 56h666c28 0 56-22 56-56v-55-111h-333c-62 0-112-50-112-111v-111c0-62 50-112 112-112h333v-166h0z m-333 278v111h333v-111h-333z" horiz-adv-x="1000" />
<glyph glyph-name="check-field" unicode="&#xe80a;" d="m1000 850h-912c-26 0-46-10-62-26s-26-36-26-62v-824c0-26 10-47 26-62l0 0c16-16 36-26 62-26h389 109 409v98h-896v809h383 109 409v93z m-140-285l-347-347-155 155c-21 21-52 21-73 0s-21-51 0-72l192-192c10-10 26-15 36-15 15 0 26 5 36 15l384 384c20 20 20 51 0 72-16 21-52 21-73 0z" horiz-adv-x="1000" />
<glyph glyph-name="check-push" unicode="&#xe80b;" d="m322 554c-22 26-34 60-34 94 0 78 64 146 147 146 78 0 146-64 146-146 0-38-15-71-38-98l41-37c34 37 53 86 53 135 0 112-90 202-203 202s-202-90-202-202c0-49 19-94 49-131l41 37z m457-82c-22 0-41-8-60-23-15 15-37 23-60 23s-41-8-60-23c-15 15-37 23-60 23-11 0-22-4-30-4v191c0 45-37 82-82 82s-82-37-82-82v-359l-60 56c-19 18-42 26-64 26s-45-11-64-26c-18-15-22-38-22-60s7-45 26-64l217-255 60-112c4-8 15-15 26-15h319l0 0c11 0 22 7 26 22l60 255c0 4 0 4 0 8v254c-4 45-41 83-90 83z m30-337l-52-229h-281l-53 101-4 4-220 255 0 0c-8 7-12 15-12 22 0 8 4 19 12 23 7 7 15 11 22 11 7 0 19-4 22-11l0 0 113-98c7-7 19-11 30-3 11 3 18 15 18 26v427c0 15 12 30 30 30 15 0 30-12 30-30v-270c-3-15 8-30 23-30l0 0c15 0 26 11 30 26 0 15 15 27 30 27s30-12 30-30c0-15 11-27 26-27l0 0c15 0 26 12 30 27 0 15 15 30 30 30 15 0 30-15 30-30 0-15 11-27 26-27s26 12 26 27c0 15 15 30 30 30 15 0 30-15 30-30v-251h4z" horiz-adv-x="1000" />
<glyph glyph-name="coupon" unicode="&#xe80c;" d="m299 452c109 0 199 90 199 199s-90 199-199 199-199-89-199-199 89-199 199-199z m0 309c59 0 109-50 109-110s-50-109-109-109-110 49-110 109 50 110 110 110z m562-60c-10 10-20 15-30 15-10 0-25-5-35-15l-647-647c-10-10-15-20-15-30 0-10 10-20 15-30 10-10 20-15 30-15s25 5 30 15l647 647c20 15 20 45 5 60z m-159-453c-110 0-199-89-199-199s89-199 199-199 199 89 199 199-90 199-199 199z m0-309c-60 0-110 50-110 110s50 110 110 110 109-50 109-110-50-110-109-110z" horiz-adv-x="1000" />
<glyph glyph-name="form-submitted" unicode="&#xe80d;" d="m145 593h155c20 0 37 16 37 37s-17 36-37 36h-163c-17 0-33-8-45-20s-21-29-21-49v-200c0-16 9-33 21-45l0 0c12-12 28-20 45-20h294 81 364v73h-731v188z m665-408h-673c-17 0-33-8-45-21s-21-28-21-49v-200c0-16 9-32 21-45l0 0c12-12 28-20 45-20h294 81 294c17 0 33 8 45 20l0 0c12 13 21 29 21 45v200c0 17-9 33-21 45-8 17-24 25-41 25z m-665-262v188h657v-188h-657z m771 915c-16 16-40 16-53 0l-253-253-114 114c-16 16-41 16-53 0-16-16-16-41-4-53l143-143c8-8 16-12 28-12 8 0 21 4 29 12l281 282c13 16 13 41-4 53z" horiz-adv-x="1000" />
<glyph glyph-name="mail-1" unicode="&#xe80e;" d="m255-27c-141 0-255 113-255 254v246c0 50 14 86 36 127 14 18 28 36 37 50 45 50 109 77 182 77h495c73 0 136-27 177-77 14-14 28-32 37-50 22-36 36-77 36-127v-246c0-141-114-254-255-254h-490z m-110 113c32-22 73-36 110-36h495c36 0 77 14 105 36l-200 200 0 0c-32-40-91-63-146-63-50 0-109 23-145 63h-19l-200-200z m-59 459c-9-22-13-45-13-72v-246c0-31 9-59 22-86l200 200-209 204z m819-399c9 22 22 50 22 81v246c0 27-4 45-13 77l-205-205 196-199z m-505 186c27-27 59-41 95-41s73 14 96 41l273 273c-28 31-73 50-123 50h-486c-50 0-96-19-123-50l268-273z" horiz-adv-x="1000" />
<glyph glyph-name="mobile-screen-1" unicode="&#xe80f;" d="m667 850h-334c-90 0-166-77-166-167v-666c0-90 76-167 166-167h334c90 0 166 77 166 167v666c0 90-76 167-166 167z m90-806c0-54-45-99-99-99h-316c-54 0-99 45-99 99v612c0 54 45 99 99 99h311c54 0 99-45 99-99v-612h5z m-257 85c-32 0-54-22-54-54s22-54 54-54 54 23 54 54c0 32-22 54-54 54z m140 554h-280c-18 0-27-9-27-27v-54c0-18 9-27 27-27h280c18 0 27 9 27 27v54c0 18-14 27-27 27z" horiz-adv-x="1000" />
<glyph glyph-name="on-segment" unicode="&#xe810;" d="m825 75c-13 0-21-4-30-13-79-79-184-123-293-123s-214 44-292 123c-9 9-18 13-31 13s-22-4-30-13c-9-9-14-18-14-31s5-22 14-30c96-96 218-149 353-149s258 53 354 149c9 9 13 17 13 30s-4 22-13 31c-9 9-22 13-31 13z m-685 493c57 96 144 166 253 193 9 4 22 8 26 17 5 13 5 22 5 35-5 17-22 31-44 31 0 0-4 0-9 0-131-35-236-118-305-232-66-118-83-253-49-384 5-18 22-31 40-31 4 0 9 0 9 0 8 5 21 9 26 18 4 8 9 22 4 30-26 114-13 227 44 323z m799 31l-4 9c-66 118-175 201-306 231-5 0-9 0-9 0-17 0-35-13-39-30-5-22 9-44 30-53 109-30 197-96 254-192l8-13 0 0c48-92 57-197 31-297-4-9 0-22 4-31 5-8 13-17 26-17 5 0 9 0 9 0 18 0 35 13 40 31 35 117 17 248-44 362z m-721-459c0-13 5-21 9-30 13-9 22-13 35-13l0 0c22 0 39 17 39 35 9 118 66 161 201 166 136-5 192-48 201-166 0-22 18-35 39-35l0 0c9 0 22 4 31 13 9 9 13 17 9 30-13 162-101 236-280 241-179-5-271-79-284-241z m284 603c-74 0-135-61-135-135s61-136 135-136 136 61 136 136-62 135-136 135z m0-192c-30 0-57 26-57 57s27 56 57 56 57-26 57-56-26-57-57-57z" horiz-adv-x="1000" />
<glyph glyph-name="tags-1" unicode="&#xe811;" d="m974 324l-500 500c-16 15-37 26-58 26h-253c-89 0-163-74-163-163v-247c0-27 11-48 26-64l500-500c16-15 37-26 63-26l0 0c22 0 48 11 64 26l326 327c16 16 26 37 26 63-5 21-15 42-31 58z m-390-374l-489 489v248c0 37 31 68 68 68h242l490-489-311-316z m-316 737c-57 0-105-47-105-105s48-106 105-106 106 48 106 106-48 105-106 105z m0-116c-5 0-10 5-10 11s5 10 10 10 11-5 11-10c0-6-5-11-11-11z" horiz-adv-x="1000" />
<glyph glyph-name="visit-location" unicode="&#xe812;" d="m502 607c-100 0-176-81-176-176 0-100 81-176 176-176 100 0 177 81 177 176 0 95-81 176-177 176z m0-271c-52 0-90 43-90 90 0 53 43 91 90 91 53 0 91-43 91-91 0-47-43-90-91-90z m0 514c-233 0-423-190-423-424 0-62 14-119 38-171 19-43 43-81 81-119l276-277c5-4 14-9 28-9 15 0 24 5 29 14l276 277c33 33 57 76 76 119 24 52 38 109 38 171 1 229-190 419-419 419z m305-557c-14-33-38-67-62-91l-247-247-243 243c-24 28-48 57-62 95-19 43-29 86-29 133 0 186 153 334 334 334 185 0 333-153 333-334 5-47-5-90-24-133z" horiz-adv-x="1000" />
<glyph glyph-name="visited-page" unicode="&#xe813;" d="m889 850h-778c-61 0-111-50-111-111v-778c0-61 50-111 111-111h778c61 0 111 50 111 111v778c0 61-50 111-111 111z m0-889h-778v778h778l0-778 0 0z m-611 556h444c34 0 56 22 56 55 0 28-22 56-56 56h-444c-28 0-56-28-56-56 0-28 28-55 56-55z" horiz-adv-x="1000" />
<glyph glyph-name="timer" unicode="&#xe814;" d="m500 850c-275 0-500-225-500-500s225-500 500-500c135 0 260 50 355 145s145 220 145 355c0 275-225 500-500 500z m285-785c-75-75-180-115-285-115-220 0-400 180-400 400s180 400 400 400 400-180 400-400c0-105-40-210-115-285z m-235 580h-100v-335l260-160 55 85-215 135v275z" horiz-adv-x="1000" />
<glyph glyph-name="tags-2" unicode="&#xe815;" d="m974 324l-500 500c-16 15-37 26-58 26h-253c-89 0-163-74-163-163v-247c0-27 11-48 26-64l500-500c16-15 37-26 63-26l0 0c22 0 48 11 64 26l326 327c16 16 26 37 26 63-5 21-15 42-31 58z m-390-374l-489 489v248c0 37 31 68 68 68h242l490-489-311-316z m-316 737c-57 0-105-47-105-105s48-106 105-106 106 48 106 106-48 105-106 105z m0-116c-5 0-10 5-10 11s5 10 10 10 11-5 11-10c0-6-5-11-11-11z" horiz-adv-x="1000" />
<glyph glyph-name="segments" unicode="&#xe816;" d="m826 78c-9 0-23-5-28-14-80-80-183-122-296-122s-216 42-295 122c-10 9-19 14-28 14-10 0-24-5-29-14-9-10-14-19-14-28s5-24 14-29c94-94 221-145 352-145s259 51 353 145c9 10 14 19 14 28s-5 24-14 29c-10 9-19 14-29 14z m-324 601c-75 0-150-28-206-75-10-10-19-19-19-33s5-24 9-33c10-10 24-19 38-19 9 0 23 5 28 9 42 33 94 52 146 52s103-19 145-52c10-9 19-9 28-9 15 0 29 5 38 19 9 9 14 23 9 33 0 14-9 23-18 33-52 46-122 75-198 75z m-361-113c56 99 145 164 253 192 10 5 19 10 24 19 5 14 9 24 5 33-5 19-24 33-43 33 0 0-4 0-9 0-127-33-235-117-305-235-66-117-85-249-47-380 5-19 23-33 42-33 5 0 10 0 10 0 9 5 18 10 23 19 5 9 9 19 5 33-29 112-14 225 42 319z m798 33l-5 9c-65 118-173 198-305 235-5 0-9 0-9 0-19 0-38-14-42-33-5-23 9-47 28-51 108-29 197-99 253-193l10-19 0 0c47-94 61-197 32-300-4-10 0-24 5-33 5-9 14-19 24-19 4 0 9 0 9 0 19 0 38 14 42 33 38 127 19 258-42 371z m-361-451c-24-9-38-37-29-61 5-19 24-33 47-33 5 0 10 0 14 5 71 23 132 75 169 141s52 141 38 216c-5 23-23 37-47 37-5 0-5 0-9 0-14 0-24-9-33-18-10-10-10-24-10-38 10-52 0-108-28-150-23-47-61-80-112-99z m-339 305c-4 0-4 0-9 0-23 0-42-18-47-37-14-75 0-150 38-216s98-113 169-141c4 0 9-5 14-5 19 0 37 14 47 33 9 24-5 52-28 61-52 19-90 52-118 99-28 47-37 98-28 150 5 28-9 52-38 56z" horiz-adv-x="1000" />
<glyph glyph-name="form-field" unicode="&#xe817;" d="m913 260h-825c-20 0-40-10-55-25s-25-35-25-55v-245c0-20 10-40 25-55l0 0c15-20 35-30 55-30h360 100 360c20 0 40 10 55 25l0 0c15 15 25 35 25 55v245c0 20-10 40-25 55-10 20-30 30-50 30z m-815-320v230h805v-230h-805z m-65 525l0 0c15-15 35-25 55-25h360 100 360c20 0 40 10 55 25l0 0c15 15 25 35 25 55v245c0 20-10 40-25 55-10 20-30 30-50 30h-435-390c-20 0-40-10-55-25s-25-35-25-55v-245c0-25 10-45 25-60z m65 295h805v-230h-805v230z" horiz-adv-x="1000" />
<glyph glyph-name="change-field" unicode="&#xe818;" d="m998 850h-465-440c-25 0-50-10-65-25s-25-40-25-65v-825c0-25 10-45 25-60l0 0c20-15 40-25 65-25h390 110 410v95h-900v805h380 110 410v100h-5z m-635-740v475h-80v-475h80z m105 55c0-30 25-50 50-50 30 0 50 25 50 50 0 30-25 50-50 50-30 0-50-20-50-50z m155 0c0-30 25-50 50-50 30 0 50 25 50 50 0 30-25 50-50 50s-50-20-50-50z m160 0c0-30 25-50 50-50 30 0 50 25 50 50 0 30-25 50-50 50s-50-20-50-50z" horiz-adv-x="1000" />
<glyph glyph-name="remove-tag-1" unicode="&#xe819;" d="m210 580c0-60 50-105 105-105 60 0 105 50 105 105 0 60-50 105-105 105-55 5-105-45-105-105z m120 0c0-5-5-10-10-10s-10 5-10 10 5 10 10 10c5 5 10 0 10-10z m470-235l140 140c15 15 15 40 0 55s-40 15-55 0l-140-140-140 140c-15 15-40 15-55 0-20-15-20-40-5-55l140-140-140-140c-15-15-15-40 0-55 10-10 20-10 30-10s20 5 30 10l140 140 140-140c10-10 20-10 30-10s20 5 30 10c15 15 15 40 0 55l-145 140z m-30-330c-10 10-20 15-35 15-10 0-25-5-35-15l-65-65-490 490v245c0 40 30 70 70 70h245l105-105c10-10 20-15 35-15s25 5 35 15l0 0c20 20 20 50 0 65l-110 110c-15 15-40 25-60 25h-250c-90 0-165-75-165-165v-250c0-25 10-45 25-60l500-500c15-15 40-25 60-25l0 0c25 0 45 10 60 25l70 70c10 10 15 20 15 35 5 15 0 25-10 35l0 0z" horiz-adv-x="1000" />
</font>
</defs>
</svg>
